<svg width="22" height="22" viewBox="0 0 22 22" fill="none" xmlns="http://www.w3.org/2000/svg">
<path fill-rule="evenodd" clip-rule="evenodd" d="M5.60558 3.3031C5.62967 3.3031 5.65383 3.30311 5.67808 3.30311L16.3947 3.3031C17.4141 3.30305 18.2868 3.30301 18.9846 3.39681C19.7301 3.49705 20.4368 3.72203 21.0091 4.29428C21.5813 4.86653 21.8063 5.57323 21.9065 6.3188C22.0004 7.01651 22.0003 7.88925 22.0003 8.90867V16.3945C22.0003 17.4139 22.0004 18.2866 21.9065 18.9843C21.8063 19.7299 21.5813 20.4366 21.0091 21.0088C20.4368 21.5811 19.7301 21.8061 18.9846 21.9063C18.2868 22.0001 17.4141 22.0001 16.3947 22H5.60557C4.58616 22.0001 3.71341 22.0001 3.0157 21.9063C2.27013 21.8061 1.56343 21.5811 0.99118 21.0088C0.418934 20.4366 0.193951 19.7299 0.0937123 18.9843C-9.40993e-05 18.2866 -4.94984e-05 17.4139 2.43102e-06 16.3944L4.92129e-06 8.98117C4.92129e-06 8.95693 3.67616e-06 8.93276 2.43102e-06 8.90868C-4.94984e-05 7.88926 -9.40993e-05 7.01652 0.0937123 6.31879C0.193951 5.57323 0.418935 4.86653 0.99118 4.29428C1.56343 3.72203 2.27013 3.49705 3.0157 3.39681C3.71342 3.30301 4.58616 3.30305 5.60558 3.3031ZM3.3062 5.55756C2.80239 5.62529 2.63245 5.73626 2.53281 5.83591C2.43316 5.93555 2.32219 6.10549 2.25446 6.6093C2.18251 7.14446 2.18019 7.86896 2.18019 8.98117V16.3219C2.18019 17.4342 2.18251 18.1587 2.25446 18.6938C2.32219 19.1976 2.43316 19.3676 2.53281 19.4672C2.63245 19.5669 2.80239 19.6778 3.3062 19.7456C3.84137 19.8175 4.56587 19.8198 5.67808 19.8198H16.3222C17.4344 19.8198 18.1589 19.8175 18.6941 19.7456C19.1979 19.6778 19.3678 19.5669 19.4675 19.4672C19.5671 19.3676 19.6781 19.1976 19.7458 18.6938C19.8178 18.1587 19.8201 17.4342 19.8201 16.3219V8.98118C19.8201 7.86896 19.8178 7.14446 19.7458 6.6093C19.6781 6.10549 19.5671 5.93555 19.4675 5.83591C19.3678 5.73626 19.1979 5.62529 18.6941 5.55756C18.1589 5.48561 17.4344 5.48329 16.3222 5.48329H5.67808C4.56586 5.48329 3.84136 5.48561 3.3062 5.55756Z" fill="#D7D7EC"/>
<path fill-rule="evenodd" clip-rule="evenodd" d="M5.42825 3.3031C5.45028 3.3031 5.47238 3.3031 5.49455 3.3031L16.572 3.3031C17.5078 3.30306 18.3092 3.30302 18.9542 3.38306C19.6409 3.46826 20.2981 3.65858 20.8541 4.14875C20.9605 4.24252 21.0608 4.34289 21.1546 4.44925C21.6448 5.00524 21.8351 5.66246 21.9203 6.34918C22.0003 6.9942 22.0003 7.79557 22.0003 8.73132V8.79766H20.9102V9.88775H1.0901V8.79766H4.10975e-06C4.10975e-06 8.77548 3.08435e-06 8.75338 2.05894e-06 8.73135C-4.20335e-05 7.79558 -7.97527e-05 6.99421 0.0799551 6.34918C0.165163 5.66246 0.35548 5.00524 0.845648 4.44925C0.939422 4.34289 1.03979 4.24252 1.14615 4.14875C1.70214 3.65858 2.35936 3.46826 3.04608 3.38306C3.69111 3.30302 4.49248 3.30306 5.42825 3.3031ZM2.18517 7.70756H19.8151C19.8084 7.25985 19.7929 6.90924 19.7567 6.61764C19.6986 6.14937 19.6023 5.98527 19.5192 5.89104C19.4859 5.8532 19.4502 5.81749 19.4123 5.78413C19.3181 5.70106 19.154 5.60476 18.6857 5.54665C18.1909 5.48526 17.5263 5.48329 16.5057 5.48329H5.49455C4.47395 5.48329 3.80931 5.48526 3.31454 5.54665C2.84627 5.60476 2.68217 5.70106 2.58794 5.78413C2.5501 5.81749 2.51439 5.8532 2.48103 5.89104C2.39796 5.98527 2.30165 6.14937 2.24355 6.61764C2.20737 6.90924 2.19183 7.25985 2.18517 7.70756Z" fill="#D7D7EC"/>
<path fill-rule="evenodd" clip-rule="evenodd" d="M5.4945 -2.45464e-07C6.09654 -1.09898e-07 6.58459 0.488052 6.58459 1.09009L6.58459 4.39344C6.58459 4.99548 6.09654 5.48353 5.4945 5.48353C4.89246 5.48353 4.40441 4.99548 4.40441 4.39344L4.40441 1.09009C4.40441 0.488051 4.89246 -3.8103e-07 5.4945 -2.45464e-07Z" fill="#D7D7EC"/>
<path fill-rule="evenodd" clip-rule="evenodd" d="M16.5057 -2.45464e-07C17.1078 -1.09898e-07 17.5958 0.488052 17.5958 1.09009L17.5958 4.39344C17.5958 4.99548 17.1078 5.48353 16.5057 5.48353C15.9037 5.48353 15.4156 4.99548 15.4156 4.39344L15.4156 1.09009C15.4156 0.488051 15.9037 -3.8103e-07 16.5057 -2.45464e-07Z" fill="#D7D7EC"/>
</svg>
