<svg width="68" height="67" viewBox="0 0 68 67" fill="none" xmlns="http://www.w3.org/2000/svg">
<path d="M28.6343 29.3816L27.0557 37.4864H36.2599L37.8385 29.3816H28.6343Z" fill="white"/>
<path d="M33.7651 0C15.1171 0 0 15.1171 0 33.7651V65.0636C0 66.1067 0.845714 66.9524 1.88171 66.9524H34.2796C52.6246 66.9524 67.495 52.0819 67.495 33.7369C67.5021 15.103 52.399 0 33.7651 0ZM53.9002 26.4074C53.9002 28.0495 52.5682 29.3815 50.9261 29.3815H44.4916L42.913 37.4863H48.3749C50.017 37.4863 51.349 38.8183 51.349 40.4604V41.0453C51.349 42.6874 50.017 44.0194 48.3749 44.0194H41.6373L39.8472 53.2025C39.5724 54.5979 38.3531 55.6057 36.9295 55.6057C36.7392 55.6057 36.549 55.5846 36.3587 55.5493L35.7878 55.4366C35.0126 55.2815 34.336 54.8375 33.892 54.1821C33.448 53.5267 33.2859 52.7303 33.441 51.955L34.9914 44.0265H25.7802L23.9901 53.2095C23.7152 54.6049 22.496 55.6128 21.0724 55.6128C20.8821 55.6128 20.6918 55.5916 20.5015 55.5564L19.9307 55.4436C19.1484 55.2886 18.4789 54.8446 18.0349 54.1891C17.5909 53.5337 17.4288 52.7373 17.5838 51.9621L19.1343 44.0335H13.9966C12.3545 44.0335 11.0225 42.7015 11.0225 41.0594V40.4745C11.0225 38.8324 12.3545 37.5004 13.9966 37.5004H20.4029L21.9815 29.3956H16.5408C14.8987 29.3956 13.5667 28.0636 13.5667 26.4215V25.8366C13.5667 24.1945 14.8987 22.8625 16.5408 22.8625H23.2571L24.5046 16.4773C24.7794 15.0819 25.9987 14.0741 27.4223 14.0741C27.6126 14.0741 27.8029 14.0952 27.9931 14.1305L28.564 14.2432C29.3392 14.3983 30.0158 14.8423 30.4598 15.4977C30.9038 16.1531 31.0659 16.9495 30.9109 17.7248L29.9101 22.8625H39.1143L40.3617 16.4773C40.6366 15.0819 41.8558 14.0741 43.2794 14.0741C43.4697 14.0741 43.66 14.0952 43.8503 14.1305L44.4211 14.2432C45.2034 14.3983 45.873 14.8423 46.317 15.4977C46.761 16.1531 46.923 16.9495 46.768 17.7248L45.7672 22.8625H50.9261C52.5682 22.8625 53.9002 24.1945 53.9002 25.8366V26.4074V26.4074Z" fill="white"/>
</svg>
