<svg width="16" height="12" viewBox="0 0 16 12" fill="none" xmlns="http://www.w3.org/2000/svg">
<path fill-rule="evenodd" clip-rule="evenodd" d="M0 0.779779C0 0.349119 0.349119 0 0.779779 0H14.9576C15.3882 0 15.7374 0.349119 15.7374 0.779779C15.7374 1.21044 15.3882 1.55956 14.9576 1.55956H0.779779C0.349119 1.55956 0 1.21044 0 0.779779Z" fill="#4A4A4A"/>
<path fill-rule="evenodd" clip-rule="evenodd" d="M0 5.99951C0 5.56885 0.349119 5.21973 0.779779 5.21973H14.9576C15.3882 5.21973 15.7374 5.56885 15.7374 5.99951C15.7374 6.43017 15.3882 6.77929 14.9576 6.77929H0.779779C0.349119 6.77929 0 6.43017 0 5.99951Z" fill="#4A4A4A"/>
<path fill-rule="evenodd" clip-rule="evenodd" d="M0 11.2202C0 10.7895 0.349119 10.4404 0.779779 10.4404H14.9576C15.3882 10.4404 15.7374 10.7895 15.7374 11.2202C15.7374 11.6509 15.3882 12 14.9576 12H0.779779C0.349119 12 0 11.6509 0 11.2202Z" fill="#4A4A4A"/>
</svg>
