<svg width="16" height="18" viewBox="0 0 16 18" fill="none" xmlns="http://www.w3.org/2000/svg">
<path fill-rule="evenodd" clip-rule="evenodd" d="M6.17998 1.97671e-06C6.20436 2.96038e-06 6.22882 3.94405e-06 6.25336 3.94405e-06L9.82002 1.97671e-06C10.9925 -4.59158e-05 11.9794 -8.6125e-05 12.7648 0.111219C13.6022 0.229908 14.3568 0.492405 14.9572 1.12524C15.5493 1.74947 15.7873 2.51947 15.8961 3.37237C16.0001 4.18778 16 5.21719 16 6.46233V12.8924C16 14.061 16.0001 15.044 15.8984 15.7776C15.7981 16.5006 15.5536 17.3608 14.7142 17.7908C13.8462 18.2356 13.0048 17.8887 12.3856 17.5143C11.7678 17.1407 11.0292 16.5288 10.1631 15.8114L9.50879 15.2695C8.97113 14.8242 8.63739 14.55 8.36701 14.3767C8.11878 14.2175 8.03143 14.2159 8 14.2159C7.96857 14.2159 7.88122 14.2175 7.63299 14.3767C7.36261 14.55 7.02887 14.8242 6.49121 15.2695L5.83687 15.8114C4.97083 16.5288 4.23215 17.1407 3.61437 17.5143C2.9952 17.8887 2.15379 18.2356 1.28579 17.7908C0.446401 17.3608 0.201868 16.5006 0.101626 15.7776C-8.92751e-05 15.044 -4.75104e-05 14.061 2.18495e-06 12.8924L3.30031e-06 6.46235C-2.94788e-05 5.21721 -5.64959e-05 4.18778 0.103944 3.37237C0.212727 2.51947 0.450665 1.74947 1.04285 1.12524C1.64319 0.492405 2.39777 0.229908 3.23524 0.11122C4.02062 -8.6125e-05 5.00755 -4.59158e-05 6.17998 1.97671e-06ZM3.52185 2.10201C2.93241 2.18554 2.68578 2.32749 2.51875 2.50355C2.34356 2.68822 2.19782 2.97362 2.11476 3.62484C2.02877 4.29906 2.02686 5.2003 2.02686 6.529V12.8144C2.02686 14.0817 2.02921 14.9239 2.10957 15.5035C2.14519 15.7605 2.188 15.8989 2.21776 15.9692C2.28244 15.947 2.3911 15.8989 2.55949 15.7971C3.03205 15.5113 3.65397 14.9998 4.60262 14.2141L5.23562 13.6898C5.71647 13.2915 6.14567 12.936 6.53277 12.6877C6.95361 12.4179 7.42733 12.2049 8 12.2049C8.57267 12.2049 9.04639 12.4178 9.46723 12.6877C9.85433 12.936 10.2835 13.2915 10.7644 13.6898L11.3974 14.2141C12.346 14.9998 12.968 15.5113 13.4405 15.7971C13.6089 15.8989 13.7176 15.947 13.7822 15.9692C13.812 15.8989 13.8548 15.7605 13.8904 15.5035C13.9708 14.9239 13.9731 14.0817 13.9731 12.8144V6.529C13.9731 5.2003 13.9712 4.29906 13.8852 3.62484C13.8022 2.97362 13.6564 2.68822 13.4812 2.50355C13.3142 2.32749 13.0676 2.18554 12.4782 2.10201C11.853 2.0134 11.0121 2.011 9.74664 2.011H6.25336C4.98791 2.011 4.14704 2.0134 3.52185 2.10201ZM13.7458 16.0337C13.7456 16.0332 13.7481 16.0296 13.7539 16.0243C13.7489 16.0316 13.746 16.0342 13.7458 16.0337ZM13.8416 15.9854C13.8538 15.984 13.861 15.9852 13.8615 15.9862C13.8621 15.9872 13.856 15.9879 13.8416 15.9854ZM2.13846 15.9862C2.13901 15.9852 2.14621 15.984 2.15843 15.9854C2.14401 15.9879 2.1379 15.9872 2.13846 15.9862ZM2.24615 16.0243C2.25191 16.0296 2.25438 16.0332 2.25417 16.0337C2.25397 16.0342 2.25109 16.0316 2.24615 16.0243Z" fill="#C1C1C1"/>
</svg>
