<svg width="16" height="18" viewBox="0 0 16 18" fill="none" xmlns="http://www.w3.org/2000/svg">
<path d="M0 6.21878C0 3.28722 0 1.82144 0.87868 0.910719C1.75736 0 3.17157 0 6 0H10C12.8284 0 14.2426 0 15.1213 0.910719C16 1.82144 16 3.28722 16 6.21878V13.2953C16 16.0765 16 17.467 15.1557 17.8924C14.3114 18.3177 13.2565 17.4586 11.1465 15.7403L10.4713 15.1904C9.28491 14.2243 8.69173 13.7412 8 13.7412C7.30827 13.7412 6.71509 14.2243 5.52871 15.1904L4.85346 15.7403C2.74355 17.4586 1.68859 18.3177 0.844294 17.8924C0 17.467 0 16.0765 0 13.2953V6.21878Z" fill="#FF7F6D"/>
</svg>
