<svg width="22" height="22" viewBox="0 0 22 22" fill="none" xmlns="http://www.w3.org/2000/svg">
<path fill-rule="evenodd" clip-rule="evenodd" d="M9.20985 2.84543C8.42956 3.29499 7.50649 3.98285 6.17104 4.98139L4.76101 6.0357C4.01968 6.59001 3.51788 6.96629 3.14847 7.29237C2.79202 7.60701 2.62218 7.82164 2.51649 8.02211C2.28985 8.45195 2.25989 8.95072 2.25989 10.7343V15.9501C2.25989 17.1462 2.26302 17.9133 2.34995 18.4773C2.42916 18.9913 2.55568 19.1735 2.69876 19.2983C2.86405 19.4425 3.13917 19.5797 3.80744 19.658C4.49417 19.7386 5.41287 19.7404 6.7702 19.7404H15.2304C16.5877 19.7404 17.5064 19.7386 18.1931 19.658C18.8614 19.5797 19.1365 19.4425 19.3018 19.2983C19.4449 19.1735 19.5714 18.9913 19.6506 18.4773C19.7376 17.9133 19.7407 17.1462 19.7407 15.9501V10.7343C19.7407 8.95072 19.7107 8.45195 19.4841 8.02211C19.3784 7.82164 19.2086 7.60701 18.8521 7.29237C18.4827 6.96629 17.9809 6.59001 17.2396 6.0357L15.8295 4.98139C14.4941 3.98285 13.571 3.29499 12.7907 2.84543C12.0393 2.4125 11.5167 2.2596 11.0003 2.2596C10.4839 2.2596 9.96127 2.4125 9.20985 2.84543ZM8.08182 0.887546C9.03526 0.338223 9.9519 0 11.0003 0C12.0487 0 12.9653 0.338223 13.9188 0.887546C14.83 1.41258 15.8606 2.18321 17.127 3.13014L18.6289 4.25314C19.3249 4.77353 19.901 5.20429 20.3474 5.59833C20.8145 6.01063 21.2016 6.43473 21.4829 6.96826C22.0029 7.95458 22.0018 9.06107 22.0004 10.5039C22.0004 10.5798 22.0003 10.6566 22.0003 10.7343L22.0003 16.034C22.0004 17.1218 22.0004 18.0651 21.8839 18.8215C21.7566 19.6474 21.4701 20.4053 20.7872 21.001C20.1265 21.5774 19.324 21.8005 18.4564 21.9022C17.6223 22.0001 16.5701 22 15.2997 22H6.70086C5.43052 22 4.37826 22.0001 3.54423 21.9022C2.67662 21.8005 1.87405 21.5774 1.21337 21.001C0.530476 20.4053 0.244006 19.6474 0.116723 18.8215C0.000145853 18.0651 0.000211895 17.1218 0.000287958 16.034L0.000291905 10.7343C0.000291905 10.6566 0.000217133 10.5798 0.000143271 10.5039C-0.00126131 9.06107 -0.0023384 7.95458 0.517691 6.96826C0.798991 6.43473 1.18605 6.01063 1.65314 5.59833C2.09954 5.2043 2.67565 4.77354 3.37163 4.25316L4.87355 3.13014C6.13993 2.18321 7.17054 1.41258 8.08182 0.887546Z" fill="#D7D7EC"/>
<path fill-rule="evenodd" clip-rule="evenodd" d="M6.34521 14.8347C6.34521 13.4679 7.45322 12.3599 8.82001 12.3599H13.1802C14.547 12.3599 15.655 13.4679 15.655 14.8347V20.8698C15.655 21.4938 15.1491 21.9996 14.5252 21.9996C13.9012 21.9996 13.3954 21.4938 13.3954 20.8698V14.8347C13.3954 14.7158 13.299 14.6195 13.1802 14.6195H8.82001C8.70116 14.6195 8.60481 14.7158 8.60481 14.8347V20.8698C8.60481 21.4938 8.09898 21.9996 7.47501 21.9996C6.85104 21.9996 6.34521 21.4938 6.34521 20.8698V14.8347Z" fill="#D7D7EC"/>
</svg>
