<svg width="16" height="16" viewBox="0 0 16 16" fill="none" xmlns="http://www.w3.org/2000/svg">
<path d="M1.36841 7C1.36841 4.17157 1.36841 2.75736 2.24709 1.87868C3.12577 1 4.53998 1 7.36841 1H7.99999H8.63156C11.46 1 12.8742 1 13.7529 1.87868C14.6316 2.75736 14.6316 4.17157 14.6316 7V9C14.6316 11.8284 14.6316 13.2426 13.7529 14.1213C12.8742 15 11.46 15 8.63157 15H7.36841C4.53998 15 3.12577 15 2.24709 14.1213C1.36841 13.2426 1.36841 11.8284 1.36841 9V7Z" stroke="white"/>
<mask id="path-2-inside-1_788_25216" fill="white">
<path fill-rule="evenodd" clip-rule="evenodd" d="M13.04 9.99224C11.8297 9.24105 10.2251 9.38048 9.1613 10.4106C9.11194 10.4584 9.05797 10.5153 8.97854 10.5992L8.96721 10.6111C8.89714 10.6851 8.88036 10.7025 8.87144 10.7109C8.5575 11.009 8.04388 10.9121 7.86001 10.5202C7.85479 10.5091 7.84548 10.4868 7.80715 10.3924L7.74603 10.2419L7.72265 10.1843C7.56795 9.80309 7.46458 9.54835 7.35707 9.36103C6.45743 7.79353 4.45682 7.31467 2.95937 8.2269C2.9593 8.33973 2.95929 8.45665 2.95929 8.57792V9.42002C2.95929 9.59159 2.95932 9.75446 2.95948 9.90934C3.22308 9.63174 3.33071 9.52218 3.41226 9.45662C4.32374 8.72395 5.67414 8.97855 6.25626 9.99282C6.31471 10.0947 6.38358 10.2601 6.57003 10.7194L6.63116 10.8699L6.63776 10.8862L6.63776 10.8862C6.66585 10.9554 6.68928 11.0131 6.71097 11.0594C7.26259 12.235 8.80345 12.5255 9.74528 11.6314C9.78232 11.5963 9.82515 11.5511 9.8765 11.4968L9.87657 11.4968L9.88861 11.484C9.98359 11.3838 10.0172 11.3485 10.0442 11.3224C10.7824 10.6076 11.9547 10.6076 12.6929 11.3224C12.7199 11.3485 12.7535 11.3838 12.8485 11.484L13.0165 11.6614C13.0347 11.225 13.039 10.6917 13.04 9.99224Z"/>
</mask>
<path fill-rule="evenodd" clip-rule="evenodd" d="M13.04 9.99224C11.8297 9.24105 10.2251 9.38048 9.1613 10.4106C9.11194 10.4584 9.05797 10.5153 8.97854 10.5992L8.96721 10.6111C8.89714 10.6851 8.88036 10.7025 8.87144 10.7109C8.5575 11.009 8.04388 10.9121 7.86001 10.5202C7.85479 10.5091 7.84548 10.4868 7.80715 10.3924L7.74603 10.2419L7.72265 10.1843C7.56795 9.80309 7.46458 9.54835 7.35707 9.36103C6.45743 7.79353 4.45682 7.31467 2.95937 8.2269C2.9593 8.33973 2.95929 8.45665 2.95929 8.57792V9.42002C2.95929 9.59159 2.95932 9.75446 2.95948 9.90934C3.22308 9.63174 3.33071 9.52218 3.41226 9.45662C4.32374 8.72395 5.67414 8.97855 6.25626 9.99282C6.31471 10.0947 6.38358 10.2601 6.57003 10.7194L6.63116 10.8699L6.63776 10.8862L6.63776 10.8862C6.66585 10.9554 6.68928 11.0131 6.71097 11.0594C7.26259 12.235 8.80345 12.5255 9.74528 11.6314C9.78232 11.5963 9.82515 11.5511 9.8765 11.4968L9.87657 11.4968L9.88861 11.484C9.98359 11.3838 10.0172 11.3485 10.0442 11.3224C10.7824 10.6076 11.9547 10.6076 12.6929 11.3224C12.7199 11.3485 12.7535 11.3838 12.8485 11.484L13.0165 11.6614C13.0347 11.225 13.039 10.6917 13.04 9.99224Z" fill="#FFA093"/>
<path d="M9.1613 10.4106L8.46568 9.69215L8.46568 9.69215L9.1613 10.4106ZM13.04 9.99224L14.04 9.99366L14.0408 9.43646L13.5673 9.1426L13.04 9.99224ZM8.97854 10.5992L9.70451 11.2869L9.70453 11.2869L8.97854 10.5992ZM8.96721 10.6111L9.69316 11.2989L9.69318 11.2989L8.96721 10.6111ZM8.87144 10.7109L8.18297 9.98567L8.18297 9.98567L8.87144 10.7109ZM7.86001 10.5202L6.9547 10.945L6.95471 10.945L7.86001 10.5202ZM7.80715 10.3924L8.7337 10.0162L8.73369 10.0162L7.80715 10.3924ZM7.74603 10.2419L6.81944 10.618L6.81949 10.6181L7.74603 10.2419ZM7.72265 10.1843L6.79605 10.5603L6.79607 10.5604L7.72265 10.1843ZM7.35707 9.36103L6.48976 9.8588L6.48976 9.85881L7.35707 9.36103ZM2.95937 8.2269L2.43912 7.37288L1.9597 7.66494L1.95937 8.22632L2.95937 8.2269ZM2.95948 9.90934L1.95948 9.9104L1.96212 12.412L3.68464 10.5979L2.95948 9.90934ZM3.41226 9.45662L4.03877 10.236L4.03877 10.236L3.41226 9.45662ZM6.25626 9.99282L7.12357 9.49505L7.12356 9.49505L6.25626 9.99282ZM6.57003 10.7194L5.64349 11.0955L5.64349 11.0955L6.57003 10.7194ZM6.63116 10.8699L7.55776 10.4938L7.5577 10.4937L6.63116 10.8699ZM6.63776 10.8862L5.71108 11.2622L5.71612 11.2742L6.63776 10.8862ZM6.63776 10.8862L7.56447 10.5102L7.5594 10.4981L6.63776 10.8862ZM6.71097 11.0594L7.61627 10.6346L7.61627 10.6346L6.71097 11.0594ZM9.74528 11.6314L9.05681 10.9062L9.0568 10.9062L9.74528 11.6314ZM9.8765 11.4968L10.6026 12.1844L10.6043 12.1826L9.8765 11.4968ZM9.87657 11.4968L9.15051 10.8091L9.14878 10.811L9.87657 11.4968ZM9.88861 11.484L9.16266 10.7963L9.16256 10.7964L9.88861 11.484ZM10.0442 11.3224L10.7398 12.0408L10.7398 12.0408L10.0442 11.3224ZM12.6929 11.3224L11.9973 12.0408L11.9973 12.0408L12.6929 11.3224ZM12.8485 11.484L13.5745 10.7963L13.5745 10.7963L12.8485 11.484ZM13.0165 11.6614L12.2906 12.3491L13.9172 14.0661L14.0156 11.703L13.0165 11.6614ZM9.85692 11.129C10.5847 10.4243 11.6839 10.3275 12.5126 10.8419L13.5673 9.1426C11.9755 8.15456 9.86556 8.33667 8.46568 9.69215L9.85692 11.129ZM9.70453 11.2869C9.78941 11.1973 9.82657 11.1584 9.85692 11.129L8.46568 9.69215C8.39731 9.75835 8.32652 9.83338 8.25254 9.91148L9.70453 11.2869ZM9.69318 11.2989L9.70451 11.2869L8.25256 9.91146L8.24124 9.92341L9.69318 11.2989ZM9.55992 11.4362C9.5936 11.4042 9.63547 11.3598 9.69316 11.2989L8.24126 9.92339C8.2061 9.9605 8.18661 9.98099 8.17525 9.99281C8.16962 9.99867 8.16799 10.0003 8.16858 9.99972C8.16936 9.99892 8.17479 9.99343 8.18297 9.98567L9.55992 11.4362ZM6.95471 10.945C7.42832 11.9544 8.75127 12.2038 9.55992 11.4362L8.18297 9.98567C8.36372 9.81408 8.65944 9.86983 8.76531 10.0955L6.95471 10.945ZM6.88061 10.7686C6.91217 10.8464 6.93498 10.903 6.9547 10.945L8.76532 10.0955C8.7701 10.1057 8.77315 10.1128 8.77359 10.1138C8.77392 10.1146 8.773 10.1124 8.76989 10.1049C8.76362 10.0898 8.75292 10.0636 8.7337 10.0162L6.88061 10.7686ZM6.81949 10.6181L6.88061 10.7686L8.73369 10.0162L8.67257 9.86569L6.81949 10.6181ZM6.79607 10.5604L6.81944 10.618L8.67261 9.86579L8.64924 9.8082L6.79607 10.5604ZM6.48976 9.85881C6.55526 9.97292 6.62995 10.151 6.79605 10.5603L8.64926 9.80825C8.50596 9.45515 8.3739 9.12377 8.22438 8.86326L6.48976 9.85881ZM3.47962 9.08091C4.50381 8.45699 5.87427 8.78638 6.48976 9.8588L8.22438 8.86326C7.0406 6.80068 4.40983 6.17235 2.43912 7.37288L3.47962 9.08091ZM1.95937 8.22632C1.9593 8.33944 1.95929 8.4566 1.95929 8.57792H3.95929C3.95929 8.4567 3.9593 8.34001 3.95937 8.22748L1.95937 8.22632ZM1.95929 8.57792V9.42002H3.95929V8.57792H1.95929ZM1.95929 9.42002C1.95929 9.59163 1.95932 9.75495 1.95948 9.9104L3.95948 9.90829C3.95932 9.75396 3.95929 9.59154 3.95929 9.42002H1.95929ZM2.78575 8.67721C2.63891 8.79524 2.47667 8.96553 2.23432 9.22077L3.68464 10.5979C3.81705 10.4585 3.90206 10.37 3.96242 10.3094C4.02384 10.2478 4.0408 10.2344 4.03877 10.236L2.78575 8.67721ZM7.12356 9.49505C6.23569 7.94803 4.17598 7.5597 2.78575 8.67721L4.03877 10.236C4.47149 9.8882 5.11259 10.0091 5.38895 10.4906L7.12356 9.49505ZM7.49657 10.3432C7.32591 9.92281 7.22512 9.672 7.12357 9.49505L5.38895 10.4906C5.3882 10.4893 5.40156 10.5124 5.44613 10.6163C5.48936 10.7171 5.54933 10.8636 5.64349 11.0955L7.49657 10.3432ZM7.5577 10.4937L7.49657 10.3432L5.64349 11.0955L5.70461 11.2461L7.5577 10.4937ZM7.56436 10.5101L7.55776 10.4938L5.70456 11.2459L5.71116 11.2622L7.56436 10.5101ZM7.5594 10.4981L7.55939 10.4981L5.71612 11.2742L5.71613 11.2742L7.5594 10.4981ZM7.61627 10.6346C7.6084 10.6178 7.59604 10.5882 7.56439 10.5102L5.71114 11.2622C5.73566 11.3226 5.77015 11.4084 5.80567 11.4841L7.61627 10.6346ZM9.0568 10.9062C8.60967 11.3306 7.87815 11.1927 7.61627 10.6346L5.80567 11.4841C6.64703 13.2773 8.99722 13.7204 10.4338 12.3567L9.0568 10.9062ZM9.1504 10.8092C9.09253 10.8704 9.07024 10.8934 9.05681 10.9062L10.4338 12.3567C10.4944 12.2991 10.5578 12.2318 10.6026 12.1844L9.1504 10.8092ZM9.14878 10.811L9.14871 10.811L10.6043 12.1826L10.6044 12.1826L9.14878 10.811ZM9.16256 10.7964L9.15051 10.8091L10.6026 12.1844L10.6147 12.1717L9.16256 10.7964ZM9.34858 10.604C9.30201 10.6491 9.24969 10.7044 9.16266 10.7963L10.6146 12.1718C10.6627 12.121 10.6923 12.0898 10.713 12.0683C10.7335 12.0469 10.739 12.0415 10.7398 12.0408L9.34858 10.604ZM13.3885 10.604C12.2626 9.51371 10.4746 9.51371 9.34858 10.604L10.7398 12.0408C11.0903 11.7014 11.6468 11.7014 11.9973 12.0408L13.3885 10.604ZM13.5745 10.7963C13.4874 10.7044 13.4351 10.6491 13.3885 10.604L11.9973 12.0408C11.9981 12.0416 12.0036 12.0469 12.0241 12.0683C12.0449 12.0898 12.0744 12.121 12.1225 12.1718L13.5745 10.7963ZM13.7425 10.9736L13.5745 10.7963L12.1225 12.1718L12.2906 12.3491L13.7425 10.9736ZM14.0156 11.703C14.0348 11.244 14.039 10.692 14.04 9.99366L12.04 9.99082C12.039 10.6915 12.0346 11.206 12.0174 11.6198L14.0156 11.703Z" fill="white" mask="url(#path-2-inside-1_788_25216)"/>
<ellipse cx="11.7895" cy="4.99935" rx="1.26316" ry="1.33333" stroke="white" stroke-linecap="round"/>
</svg>
