<svg width="17" height="18" viewBox="0 0 17 18" fill="none" xmlns="http://www.w3.org/2000/svg">
<path d="M0.872681 9.15805C0.872681 6.77009 0.872681 5.57611 1.26634 4.63556C1.7812 3.40546 2.75935 2.42732 3.98944 1.91246C4.92999 1.5188 6.12397 1.5188 8.51194 1.5188V1.5188C10.8999 1.5188 12.0939 1.5188 13.0344 1.91246C14.2645 2.42732 15.2427 3.40546 15.7575 4.63556C16.1512 5.57611 16.1512 6.77009 16.1512 9.15805V9.63116C16.1512 12.0191 16.1512 13.2131 15.7575 14.1537C15.2427 15.3838 14.2645 16.3619 13.0344 16.8768C12.0939 17.2704 10.8999 17.2704 8.51194 17.2704V17.2704C6.12397 17.2704 4.92999 17.2704 3.98944 16.8768C2.75935 16.3619 1.7812 15.3838 1.26634 14.1537C0.872681 13.2131 0.872681 12.0191 0.872681 9.63116V9.15805Z" stroke="#7A7F8B" stroke-width="1.26923"/>
<path fill-rule="evenodd" clip-rule="evenodd" d="M13.6119 10.3633C12.4207 9.60331 10.8366 9.7162 9.76219 10.702C9.6938 10.7647 9.62039 10.8404 9.51246 10.9517L9.51241 10.9517L9.49705 10.9676C9.40164 11.0659 9.37883 11.0888 9.36637 11.0999C9.05488 11.378 8.5644 11.2846 8.37682 10.9116C8.36932 10.8967 8.35651 10.867 8.30391 10.7405L8.24928 10.609L8.22405 10.5483L8.22403 10.5483C8.05646 10.145 7.94433 9.8751 7.82563 9.67658C6.90249 8.1327 4.89924 7.67921 3.41113 8.61976C3.41092 8.78927 3.41089 8.9682 3.41089 9.15745V9.63056C3.41089 9.87487 3.41094 10.102 3.41136 10.3138C3.72569 9.99016 3.84827 9.86762 3.94143 9.79596C4.84454 9.10123 6.15155 9.35001 6.73628 10.3279C6.80085 10.4359 6.87536 10.6105 7.07728 11.0962L7.13191 11.2277L7.14094 11.2494L7.14094 11.2494C7.17951 11.3423 7.21174 11.4198 7.24289 11.4818C7.80561 12.6009 9.27705 12.8809 10.2115 12.0468C10.2633 12.0007 10.3217 11.9404 10.3917 11.8682L10.3917 11.8682L10.4081 11.8513C10.5372 11.7182 10.5828 11.6716 10.6202 11.6372C11.3483 10.9693 12.4663 10.9693 13.1944 11.6372C13.2318 11.6716 13.2775 11.7182 13.4065 11.8513L13.5827 12.0329C13.6044 11.5966 13.6103 11.0646 13.6119 10.3633Z" fill="white"/>
<path d="M9.76219 10.702L9.33317 10.2343L9.33317 10.2343L9.76219 10.702ZM13.6119 10.3633L14.2465 10.3647L14.2473 10.0159L13.9532 9.82827L13.6119 10.3633ZM9.51246 10.9517L9.0569 10.5099L9.05687 10.5099L9.51246 10.9517ZM9.51241 10.9517L9.96797 11.3936L9.968 11.3935L9.51241 10.9517ZM9.49705 10.9676L9.95258 11.4094L9.95261 11.4094L9.49705 10.9676ZM9.36637 11.0999L8.94379 10.6265L8.94379 10.6265L9.36637 11.0999ZM8.37682 10.9116L8.94379 10.6265L8.94379 10.6265L8.37682 10.9116ZM8.30391 10.7405L8.88991 10.4969L8.88991 10.4969L8.30391 10.7405ZM8.24928 10.609L7.66325 10.8526L7.66328 10.8526L8.24928 10.609ZM8.22405 10.5483L7.63792 10.7916L7.63802 10.7919L8.22405 10.5483ZM8.22403 10.5483L8.81016 10.305L8.81008 10.3048L8.22403 10.5483ZM7.82563 9.67658L7.28096 10.0023L7.28096 10.0023L7.82563 9.67658ZM3.41113 8.61976L3.07207 8.08332L2.77695 8.26985L2.77652 8.61898L3.41113 8.61976ZM3.41136 10.3138L2.77675 10.3151L2.77982 11.875L3.86662 10.7559L3.41136 10.3138ZM3.94143 9.79596L4.32837 10.299L4.32837 10.299L3.94143 9.79596ZM6.73628 10.3279L7.28096 10.0023L7.28096 10.0023L6.73628 10.3279ZM7.07728 11.0962L7.66328 10.8526V10.8526L7.07728 11.0962ZM7.13191 11.2277L7.71796 10.9842L7.71791 10.9841L7.13191 11.2277ZM7.14094 11.2494L7.74299 11.0487L7.73576 11.027L7.72699 11.0059L7.14094 11.2494ZM7.14094 11.2494L6.5389 11.4501L6.54612 11.4718L6.55488 11.4928L7.14094 11.2494ZM7.24289 11.4818L6.67592 11.7669L6.67592 11.7669L7.24289 11.4818ZM10.2115 12.0468L9.78896 11.5734L9.78896 11.5734L10.2115 12.0468ZM10.3917 11.8682L10.8473 12.3099L10.8476 12.3097L10.3917 11.8682ZM10.3917 11.8682L9.93612 11.4264L9.93586 11.4267L10.3917 11.8682ZM10.4081 11.8513L9.95258 11.4094L9.95249 11.4095L10.4081 11.8513ZM10.6202 11.6372L11.0493 12.1048L11.0493 12.1048L10.6202 11.6372ZM13.1944 11.6372L12.7654 12.1048L12.7654 12.1048L13.1944 11.6372ZM13.4065 11.8513L12.951 12.2931L12.951 12.2931L13.4065 11.8513ZM13.5827 12.0329L13.1271 12.4747L14.1438 13.5229L14.2165 12.0645L13.5827 12.0329ZM10.1912 11.1696C11.0504 10.3813 12.3179 10.2905 13.2706 10.8983L13.9532 9.82827C12.5236 8.91614 10.6229 9.05108 9.33317 10.2343L10.1912 11.1696ZM9.96802 11.3935C10.0806 11.2774 10.1395 11.217 10.1912 11.1696L9.33317 10.2343C9.24808 10.3124 9.16014 10.4034 9.0569 10.5099L9.96802 11.3935ZM9.968 11.3935L9.96805 11.3935L9.05687 10.5099L9.05682 10.51L9.968 11.3935ZM9.95261 11.4094L9.96797 11.3936L9.05685 10.5099L9.04149 10.5258L9.95261 11.4094ZM9.78896 11.5734C9.82334 11.5427 9.86788 11.4967 9.95258 11.4094L9.04152 10.5257C8.99371 10.575 8.9661 10.6033 8.94932 10.6203C8.93026 10.6396 8.93376 10.6354 8.94379 10.6265L9.78896 11.5734ZM7.80985 11.1967C8.185 11.9427 9.16596 12.1294 9.78896 11.5734L8.94379 10.6265L8.94379 10.6265L7.80985 11.1967ZM7.71791 10.9841C7.76461 11.0964 7.78915 11.1555 7.80986 11.1967L8.94379 10.6265C8.94983 10.6385 8.95157 10.6436 8.94093 10.6187C8.93155 10.5967 8.91627 10.5603 8.88991 10.4969L7.71791 10.9841ZM7.66328 10.8526L7.71791 10.9841L8.88991 10.4969L8.83528 10.3654L7.66328 10.8526ZM7.63802 10.7919L7.66325 10.8526L8.83531 10.3655L8.81008 10.3048L7.63802 10.7919ZM7.63791 10.7916L7.63792 10.7916L8.81017 10.305L8.81016 10.305L7.63791 10.7916ZM7.28096 10.0023C7.37024 10.1516 7.4626 10.3696 7.63799 10.7918L8.81008 10.3048C8.65032 9.9203 8.51842 9.59862 8.3703 9.3509L7.28096 10.0023ZM3.75019 9.15621C4.9399 8.40425 6.5427 8.76758 7.28096 10.0023L8.37031 9.35091C7.26229 7.49781 4.85857 6.95416 3.07207 8.08332L3.75019 9.15621ZM2.77652 8.61898C2.77631 8.78891 2.77627 8.96817 2.77627 9.15745H4.0455C4.0455 8.96822 4.04554 8.78963 4.04575 8.62055L2.77652 8.61898ZM2.77627 9.15745V9.63056H4.0455V9.15745H2.77627ZM2.77627 9.63056C2.77627 9.87487 2.77633 10.1025 2.77675 10.3151L4.04598 10.3126C4.04556 10.1014 4.0455 9.87486 4.0455 9.63056H2.77627ZM3.55449 9.29295C3.41556 9.39982 3.25389 9.56506 2.9561 9.87169L3.86662 10.7559C4.19749 10.4153 4.28098 10.3354 4.32837 10.299L3.55449 9.29295ZM7.28096 10.0023C6.50131 8.69836 4.75864 8.36665 3.55449 9.29295L4.32837 10.299C4.93045 9.83581 5.80178 10.0017 6.19161 10.6536L7.28096 10.0023ZM7.66328 10.8526C7.47222 10.393 7.37571 10.1607 7.28096 10.0023L6.19161 10.6536C6.20299 10.6727 6.22499 10.7139 6.27454 10.8263C6.32326 10.9369 6.38966 11.0954 6.49128 11.3398L7.66328 10.8526ZM7.71791 10.9841L7.66328 10.8526L6.49128 11.3398L6.54591 11.4713L7.71791 10.9841ZM7.72699 11.0059L7.71796 10.9842L6.54586 11.4712L6.55489 11.4929L7.72699 11.0059ZM7.74299 11.0487L7.74299 11.0487L6.53889 11.4501L6.5389 11.4501L7.74299 11.0487ZM7.80985 11.1967C7.79129 11.1598 7.76867 11.1063 7.72701 11.006L6.55488 11.4928C6.59034 11.5782 6.63219 11.6799 6.67592 11.7669L7.80985 11.1967ZM9.78896 11.5734C9.16596 12.1294 8.18501 11.9427 7.80985 11.1967L6.67592 11.7669C7.42622 13.259 9.38813 13.6324 10.6341 12.5203L9.78896 11.5734ZM9.93602 11.4265C9.86045 11.5045 9.81978 11.5459 9.78896 11.5734L10.6341 12.5203C10.7067 12.4555 10.783 12.3763 10.8473 12.3099L9.93602 11.4265ZM9.93586 11.4267L9.93579 11.4267L10.8476 12.3097L10.8476 12.3096L9.93586 11.4267ZM9.95249 11.4095L9.93612 11.4264L10.8474 12.3099L10.8637 12.293L9.95249 11.4095ZM10.1912 11.1696C10.1366 11.2197 10.0748 11.2834 9.95258 11.4094L10.8636 12.2931C10.9995 12.153 11.029 12.1234 11.0493 12.1048L10.1912 11.1696ZM13.6234 11.1696C12.6527 10.279 11.162 10.279 10.1912 11.1696L11.0493 12.1048C11.5346 11.6595 12.28 11.6595 12.7654 12.1048L13.6234 11.1696ZM13.862 11.4094C13.7398 11.2834 13.678 11.2197 13.6234 11.1696L12.7654 12.1048C12.7856 12.1234 12.8151 12.153 12.951 12.2931L13.862 11.4094ZM14.0382 11.591L13.862 11.4094L12.951 12.2931L13.1271 12.4747L14.0382 11.591ZM14.2165 12.0645C14.2391 11.6115 14.2449 11.0658 14.2465 10.3647L12.9773 10.3618C12.9757 11.0634 12.9697 11.5818 12.9488 12.0013L14.2165 12.0645Z" fill="#7A7F8B"/>
<ellipse cx="12.3316" cy="5.45631" rx="1.27321" ry="1.31263" stroke="#7A7F8B" stroke-width="1.26923" stroke-linecap="round"/>
</svg>
