<svg width="135" height="13" viewBox="0 0 135 13" fill="none" xmlns="http://www.w3.org/2000/svg">
<path d="M11.27 0.0519991H9.912V4.252H8.274V0.318H6.916V12.33H8.274V5.456H9.912V12.96H11.27V0.0519991ZM0.7 1.27V9.418H2.044C3.64 9.418 4.97 9.362 6.104 9.152L5.95 7.948C4.788 8.144 3.71 8.2 2.646 8.2H2.086V1.27H0.7ZM16.1889 3.706C16.1889 5.61 16.1889 6.59 12.2409 9.124L13.0109 10.202C15.7689 8.354 16.8609 7.29 17.2949 6.002H19.3109V12.33H20.6689V0.318H19.3109V4.798H17.5189C17.5329 4.532 17.5469 4.252 17.5469 3.944V1.312H12.6049V2.502H16.1889V3.706ZM23.3569 0.0519991H21.9989V12.96H23.3569V0.0519991ZM37.8658 0.99H36.4938V3.202H30.7258V1.004H29.3538V7.626H32.9098V10.062H27.6878V11.238H39.5318V10.062H34.2958V7.626H37.8658V0.99ZM30.7258 4.378H36.4938V6.45H30.7258V4.378ZM50.9048 0.0519991H49.5468V4.252H47.9088V0.318H46.5508V12.33H47.9088V5.456H49.5468V12.96H50.9048V0.0519991ZM40.3348 1.27V9.418H41.6788C43.2748 9.418 44.6048 9.362 45.7388 9.152L45.5848 7.948C44.4228 8.144 43.3448 8.2 42.2808 8.2H41.7208V1.27H40.3348ZM51.7777 6.576V7.752H63.6217V6.576H51.7777ZM54.8717 8.928H53.4857V12.82H62.1657V11.616H54.8717V8.928ZM53.5697 0.555999V5.092H61.9277V3.916H54.9417V0.555999H53.5697ZM74.1126 1.2H68.2466V9.614H70.0806C72.1806 9.614 73.8466 9.502 75.5126 9.208L75.3306 8.046C73.7626 8.284 72.1946 8.41 70.3746 8.41H69.6326V2.404H74.1126V1.2ZM78.1026 12.96V0.0519991H76.7166V4.518H73.3706V5.722H76.7166V12.96H78.1026ZM86.9695 1.088H85.7375V4.14H84.6455V1.088H83.3715V9.558H86.9695V1.088ZM91.2115 1.088H89.9515V4.14H88.8735V1.088H87.6415V9.558H91.2115V1.088ZM93.4655 5.89H95.0895V4.686H93.4655V0.0519991H92.1635V12.96H93.4655V5.89ZM84.6455 5.302H85.7375V8.396H84.6455V5.302ZM88.8735 5.302H89.9515V8.396H88.8735V5.302ZM105.23 6.212V5.078H97.9785V3.902H104.978V0.528H96.5505V1.662H103.62V2.81H96.6205V6.212H105.23ZM94.9125 7.346V8.494H106.756V7.346H94.9125ZM98.0065 9.32H96.6205V12.834H105.3V11.63H98.0065V9.32ZM116.197 5.82H117.779V12.33H119.137V0.318H117.779V4.616H116.197V1.284H110.989V9.502H116.197V5.82ZM121.699 0.0519991H120.341V12.96H121.699V0.0519991ZM112.347 2.46H114.839V8.326H112.347V2.46ZM132.652 1.116H124.196V7.276H127.724V10.062H122.502V11.238H134.346V10.062H129.124V7.276H132.652V1.116ZM125.568 2.292H131.28V6.1H125.568V2.292Z" fill="#717683"/>
</svg>
