<svg width="185" height="24" viewBox="0 0 185 24" fill="none" xmlns="http://www.w3.org/2000/svg">
<path d="M10.2644 10.5317L9.69849 13.437H12.9979L13.5637 10.5317H10.2644Z" fill="#FF7F6D"/>
<path d="M12.1036 0C5.41895 0 0 5.41895 0 12.1036V23.3229C0 23.6968 0.303158 24 0.674526 24H12.288C18.864 24 24.1945 18.6695 24.1945 12.0935C24.197 5.41389 18.7832 0 12.1036 0ZM19.3213 9.46611C19.3213 10.0547 18.8438 10.5322 18.2552 10.5322H15.9486L15.3827 13.4375H17.3406C17.9293 13.4375 18.4067 13.9149 18.4067 14.5036V14.7133C18.4067 15.3019 17.9293 15.7794 17.3406 15.7794H14.9255L14.2838 19.0712C14.1853 19.5714 13.7482 19.9326 13.2379 19.9326C13.1697 19.9326 13.1015 19.9251 13.0333 19.9124L12.8286 19.872C12.5507 19.8164 12.3082 19.6573 12.1491 19.4223C11.9899 19.1874 11.9318 18.9019 11.9874 18.624L12.5432 15.7819H9.24126L8.59958 19.0737C8.50105 19.5739 8.064 19.9352 7.55368 19.9352C7.48547 19.9352 7.41726 19.9276 7.34905 19.9149L7.14442 19.8745C6.864 19.8189 6.624 19.6598 6.46484 19.4248C6.30568 19.1899 6.24758 18.9044 6.30316 18.6265L6.85895 15.7844H5.01726C4.42863 15.7844 3.95116 15.3069 3.95116 14.7183V14.5086C3.95116 13.92 4.42863 13.4425 5.01726 13.4425H7.31368L7.87958 10.5373H5.92926C5.34063 10.5373 4.86316 10.0598 4.86316 9.47116V9.26147C4.86316 8.67284 5.34063 8.19537 5.92926 8.19537H8.33684L8.784 5.90653C8.88253 5.40632 9.31958 5.04505 9.82989 5.04505C9.8981 5.04505 9.96631 5.05263 10.0345 5.06526L10.2392 5.10568C10.5171 5.16126 10.7596 5.32042 10.9187 5.55537C11.0779 5.79032 11.136 6.07579 11.0804 6.35368L10.7217 8.19537H14.0211L14.4682 5.90653C14.5667 5.40632 15.0038 5.04505 15.5141 5.04505C15.5823 5.04505 15.6505 5.05263 15.7187 5.06526L15.9234 5.10568C16.2038 5.16126 16.4438 5.32042 16.6029 5.55537C16.7621 5.79032 16.8202 6.07579 16.7646 6.35368L16.4059 8.19537H18.2552C18.8438 8.19537 19.3213 8.67284 19.3213 9.26147V9.46611Z" fill="#FF7F6D"/>
<path d="M40.0646 7.33574C40.9009 7.33574 41.6486 7.5328 42.3055 7.92437C42.9623 8.31848 43.4701 8.88943 43.8289 9.63974H48.644C48.1312 7.69195 47.1156 6.15595 45.5948 5.02922C44.0739 3.90248 42.2474 3.33911 40.1126 3.33911C38.372 3.33911 36.8133 3.72816 35.439 4.50374C34.0646 5.28185 32.9935 6.36564 32.2255 7.75764C31.4575 9.15216 31.0735 10.7336 31.0735 12.5096C31.0735 14.2856 31.4575 15.8646 32.2255 17.249C32.9935 18.6309 34.0646 19.7122 35.439 20.4903C36.8133 21.2684 38.372 21.6549 40.1126 21.6549C42.2474 21.6549 44.0739 21.0966 45.5948 19.9774C47.1156 18.8583 48.1312 17.3273 48.644 15.3795H43.8289C43.4701 16.1324 42.9623 16.7033 42.3055 17.0949C41.6486 17.4865 40.9009 17.6835 40.0646 17.6835C38.7156 17.6835 37.6217 17.2136 36.7855 16.2738C35.9493 15.3341 35.5299 14.081 35.5299 12.5096C35.5299 10.9383 35.9493 9.68269 36.7855 8.74543C37.6217 7.80564 38.7156 7.33574 40.0646 7.33574Z" fill="#FF7F6D"/>
<path d="M59.4794 7.08117C58.5219 7.08117 57.6604 7.26811 56.8924 7.64454C56.1244 8.02096 55.5181 8.52369 55.0735 9.15527V2.57422H50.6929V21.5292H55.0735V13.7658C55.0735 12.8083 55.3211 12.0681 55.8162 11.5376C56.3114 11.0071 56.9783 10.7443 57.8146 10.7443C58.6508 10.7443 59.3177 11.0096 59.8129 11.5376C60.308 12.0681 60.5556 12.8109 60.5556 13.7658V21.5266H64.911V13.1772C64.911 11.2824 64.4158 9.7919 63.4255 8.70811C62.4327 7.62432 61.119 7.08117 59.4794 7.08117Z" fill="#FF7F6D"/>
<path d="M77.1535 9.25897C76.7442 8.59203 76.1581 8.05392 75.4002 7.64466C74.6398 7.23539 73.7556 7.03076 72.7501 7.03076C71.5728 7.03076 70.5042 7.32887 69.5493 7.9276C68.5918 8.52634 67.8364 9.38024 67.2831 10.4893C66.7274 11.5983 66.4495 12.8893 66.4495 14.3571C66.4495 15.8249 66.7274 17.1183 67.2831 18.2375C67.8389 19.3567 68.5943 20.2181 69.5493 20.8244C70.5042 21.4308 71.5653 21.7339 72.7248 21.7339C73.7328 21.7339 74.617 21.5293 75.3749 21.12C76.1354 20.7108 76.729 20.1727 77.156 19.5057V21.5293H81.5366V7.23539H77.1535V9.25897ZM76.244 16.9693C75.6377 17.6009 74.9 17.9167 74.0284 17.9167C73.1568 17.9167 72.4191 17.5958 71.8128 16.9567C71.2065 16.315 70.9034 15.451 70.9034 14.3571C70.9034 13.2657 71.2065 12.4068 71.8128 11.7828C72.4191 11.1588 73.1568 10.848 74.0284 10.848C74.9 10.848 75.6377 11.1638 76.244 11.7954C76.8503 12.427 77.1535 13.291 77.1535 14.3823C77.1535 15.4737 76.8503 16.3377 76.244 16.9693Z" fill="#FF7F6D"/>
<path d="M112.065 7.08115C111.057 7.08115 110.127 7.32873 109.273 7.82389C108.419 8.31904 107.745 8.9582 107.25 9.74389C106.772 8.88999 106.11 8.23315 105.264 7.77083C104.418 7.30852 103.458 7.07862 102.381 7.07862C101.477 7.07862 100.666 7.25294 99.9485 7.6041C99.231 7.95525 98.6499 8.42768 98.2078 9.02641V7.23273H93.8272V17.8104H91.8592H90.4722C89.9948 17.8104 89.6537 17.7169 89.4466 17.5275C89.2419 17.3405 89.1384 17.0323 89.1384 16.6054V10.8731H92.0082V7.23525H89.1384V3.75146H84.7577V7.23525H83.0171V10.8731H84.7577V16.5599C84.7577 18.3182 85.2024 19.5864 86.0891 20.3645C86.9758 21.1426 88.2162 21.5292 89.8028 21.5292H91.8567H93.9864H98.2053V13.7658C98.2053 12.8437 98.4478 12.1313 98.9354 11.626C99.423 11.1233 100.092 10.8706 100.946 10.8706C101.8 10.8706 102.47 11.1233 102.957 11.626C103.445 12.1313 103.687 12.8437 103.687 13.7658V21.5266H108.043V13.7658C108.043 12.8437 108.285 12.1313 108.773 11.626C109.26 11.1233 109.93 10.8706 110.784 10.8706C111.638 10.8706 112.307 11.1233 112.795 11.626C113.282 12.1313 113.525 12.8437 113.525 13.7658V21.5266H117.88V13.1771C117.88 11.2647 117.355 9.77168 116.304 8.69546C115.253 7.61925 113.841 7.08115 112.065 7.08115Z" fill="#FF7F6D"/>
<path d="M124.694 7.23535H120.313V21.5267H124.694V7.23535Z" fill="#FF7F6D"/>
<path d="M122.516 1.01025C121.748 1.01025 121.119 1.23762 120.634 1.68983C120.146 2.14204 119.904 2.71046 119.904 3.39257C119.904 4.05952 120.146 4.61783 120.634 5.07004C121.122 5.52225 121.748 5.74962 122.516 5.74962C123.266 5.74962 123.885 5.52225 124.373 5.07004C124.861 4.61783 125.103 4.05952 125.103 3.39257C125.103 2.71046 124.861 2.14204 124.373 1.68983C123.885 1.23762 123.266 1.01025 122.516 1.01025Z" fill="#FF7F6D"/>
<path d="M135.938 7.08105C134.998 7.08105 134.155 7.26548 133.402 7.63179C132.649 8.00063 132.053 8.49832 131.608 9.1299V7.23516H127.228V21.5265H131.608V13.7657C131.608 12.8082 131.856 12.068 132.351 11.5375C132.846 11.0069 133.513 10.7442 134.349 10.7442C135.185 10.7442 135.852 11.0095 136.348 11.5375C136.843 12.068 137.09 12.8107 137.09 13.7657V21.5265H141.446V13.1771C141.446 11.2823 140.945 9.79179 139.948 8.708C138.947 7.62421 137.611 7.08105 135.938 7.08105Z" fill="#FF7F6D"/>
<path d="M153.688 9.20832C153.244 8.54138 152.635 8.01338 151.857 7.61927C151.079 7.22769 150.222 7.03064 149.282 7.03064C148.105 7.03064 147.036 7.32875 146.081 7.92748C145.124 8.52622 144.369 9.38011 143.815 10.4892C143.26 11.5982 142.982 12.8892 142.982 14.357C142.982 15.8247 143.26 17.1182 143.815 18.2374C144.371 19.3565 145.127 20.218 146.081 20.8243C147.036 21.4306 148.105 21.7338 149.282 21.7338C150.29 21.7338 151.175 21.5292 151.932 21.1199C152.693 20.7106 153.276 20.1624 153.686 19.4803V21.5292H158.066V2.57422H153.686V9.20832H153.688ZM152.779 16.9692C152.172 17.6007 151.435 17.9165 150.563 17.9165C149.692 17.9165 148.954 17.5957 148.348 16.9565C147.741 16.3149 147.438 15.4509 147.438 14.357C147.438 13.2656 147.741 12.4066 148.348 11.7826C148.954 11.1586 149.692 10.8479 150.563 10.8479C151.435 10.8479 152.172 11.1637 152.779 11.7953C153.385 12.4269 153.688 13.2909 153.688 14.3822C153.688 15.4736 153.385 16.3376 152.779 16.9692Z" fill="#FF7F6D"/>
<path d="M170.645 7.89917C169.569 7.31811 168.339 7.02759 166.957 7.02759C165.539 7.02759 164.284 7.32569 163.192 7.92443C162.099 8.52317 161.25 9.37706 160.643 10.4861C160.037 11.5952 159.734 12.8937 159.734 14.3792C159.734 15.8646 160.042 17.1632 160.656 18.2722C161.27 19.3838 162.124 20.2377 163.218 20.8339C164.309 21.4326 165.557 21.7307 166.957 21.7307C168.119 21.7307 169.167 21.516 170.107 21.0891C171.047 20.6621 171.827 20.0735 172.451 19.3206C173.075 18.5703 173.505 17.724 173.745 16.7842H169.084C168.657 17.7063 167.896 18.1661 166.805 18.1661C166.07 18.1661 165.451 17.9312 164.948 17.4613C164.445 16.9914 164.157 16.3143 164.089 15.4251H174.003C174.053 14.9804 174.078 14.5535 174.078 14.1442C174.078 12.7093 173.775 11.4537 173.169 10.38C172.56 9.30885 171.721 8.48022 170.645 7.89917ZM164.112 12.9973C164.231 12.2116 164.544 11.6053 165.047 11.1783C165.549 10.7514 166.168 10.5366 166.904 10.5366C167.672 10.5366 168.313 10.759 168.824 11.2036C169.334 11.6482 169.592 12.2444 169.592 12.9973H164.112Z" fill="#FF7F6D"/>
<path d="M182.043 7.76063C181.275 8.21284 180.634 8.83179 180.123 9.61748V7.23516H175.743V21.5265H180.123V14.8924C180.123 13.7152 180.396 12.8916 180.942 12.4217C181.488 11.9518 182.309 11.7168 183.4 11.7168H184.605V7.08105C183.665 7.08105 182.811 7.30842 182.043 7.76063Z" fill="#FF7F6D"/>
</svg>
