<svg width="26" height="26" viewBox="0 0 26 26" fill="none" xmlns="http://www.w3.org/2000/svg">
<path d="M11.0305 11.4097L10.4224 14.557H13.9679L14.5761 11.4097H11.0305Z" fill="#FF7F6D"/>
<path d="M13.0068 0C5.82333 0 0 5.87053 0 13.1122V25.2665C0 25.6716 0.325781 26 0.724862 26H13.205C20.2717 26 26 20.2253 26 13.1013C26.0027 5.86505 20.1848 0 13.0068 0ZM20.7631 10.2549C20.7631 10.8926 20.25 11.4099 19.6174 11.4099H17.1388L16.5306 14.5573H18.6346C19.2672 14.5573 19.7803 15.0745 19.7803 15.7122V15.9394C19.7803 16.5771 19.2672 17.0943 18.6346 17.0943H16.0393L15.3497 20.6604C15.2438 21.2023 14.7741 21.5937 14.2257 21.5937C14.1524 21.5937 14.0791 21.5855 14.0058 21.5718L13.7859 21.528C13.4873 21.4678 13.2267 21.2954 13.0557 21.0408C12.8846 20.7863 12.8222 20.4771 12.8819 20.176L13.4792 17.0971H9.93088L9.24131 20.6632C9.13543 21.2051 8.66576 21.5964 8.11736 21.5964C8.04406 21.5964 7.97076 21.5882 7.89746 21.5745L7.67756 21.5307C7.37621 21.4705 7.1183 21.2981 6.94727 21.0436C6.77623 20.7891 6.71379 20.4798 6.77352 20.1787L7.37078 17.0998H5.39167C4.75911 17.0998 4.24601 16.5825 4.24601 15.9448V15.7177C4.24601 15.08 4.75911 14.5627 5.39167 14.5627H7.85946L8.46758 11.4154H6.37172C5.73917 11.4154 5.22606 10.8981 5.22606 10.2604V10.0333C5.22606 9.39558 5.73917 8.87832 6.37172 8.87832H8.95896L9.43949 6.39874C9.54537 5.85684 10.015 5.46547 10.5634 5.46547C10.6367 5.46547 10.71 5.47368 10.7833 5.48737L11.0032 5.53116C11.3019 5.59137 11.5625 5.76379 11.7335 6.01832C11.9046 6.27284 11.967 6.58211 11.9073 6.88316L11.5218 8.87832H15.0673L15.5479 6.39874C15.6538 5.85684 16.1234 5.46547 16.6718 5.46547C16.7451 5.46547 16.8184 5.47368 16.8917 5.48737L17.1116 5.53116C17.413 5.59137 17.6709 5.76379 17.8419 6.01832C18.0129 6.27284 18.0754 6.58211 18.0157 6.88316L17.6302 8.87832H19.6174C20.25 8.87832 20.7631 9.39558 20.7631 10.0333V10.2549Z" fill="#FF7F6D"/>
</svg>
