<svg width="15" height="15" viewBox="0 0 15 15" fill="none" xmlns="http://www.w3.org/2000/svg">
<path fill-rule="evenodd" clip-rule="evenodd" d="M5.94872 1.48927C3.48585 1.48927 1.48927 3.48587 1.48927 5.94885C1.48927 8.41182 3.48585 10.4084 5.94872 10.4084C8.41158 10.4084 10.4082 8.41182 10.4082 5.94885C10.4082 3.48587 8.41158 1.48927 5.94872 1.48927ZM0 5.94885C0 2.66341 2.66331 0 5.94872 0C9.23412 0 11.8974 2.66341 11.8974 5.94885C11.8974 9.23429 9.23412 11.8977 5.94872 11.8977C2.66331 11.8977 0 9.23429 0 5.94885Z" fill="#4A4A4A"/>
<path fill-rule="evenodd" clip-rule="evenodd" d="M10.6273 10.6268C10.9181 10.336 11.3896 10.336 11.6804 10.6268L14.2824 13.2289C14.5732 13.5197 14.5732 13.9912 14.2824 14.282C13.9916 14.5728 13.5201 14.5728 13.2293 14.282L10.6273 11.6799C10.3365 11.3891 10.3365 10.9176 10.6273 10.6268Z" fill="#4A4A4A"/>
</svg>
