<svg width="16" height="17" viewBox="0 0 16 17" fill="none" xmlns="http://www.w3.org/2000/svg">
<path d="M9.6 8.21053C9.6 9.11744 8.88366 9.85263 8 9.85263C7.11634 9.85263 6.4 9.11744 6.4 8.21053C6.4 7.30362 7.11634 6.56842 8 6.56842C8.88366 6.56842 9.6 7.30362 9.6 8.21053Z" fill="#F1F2F3"/>
<path fill-rule="evenodd" clip-rule="evenodd" d="M8 3.28421C5.34903 3.28421 3.2 5.4898 3.2 8.21053C3.2 10.9313 5.34903 13.1368 8 13.1368C10.651 13.1368 12.8 10.9313 12.8 8.21053C12.8 5.4898 10.651 3.28421 8 3.28421ZM1.6 8.21053C1.6 4.58289 4.46538 1.64211 8 1.64211C11.5346 1.64211 14.4 4.58289 14.4 8.21053C14.4 11.8382 11.5346 14.7789 8 14.7789C4.46538 14.7789 1.6 11.8382 1.6 8.21053Z" fill="#F1F2F3"/>
<path d="M1.88847 3.84177C1.66116 3.51517 1.69724 3.06778 1.97377 2.78398L2.71241 2.0259C2.98894 1.74209 3.42486 1.70506 3.74309 1.93835L5.17152 2.98551L2.90877 5.3078L1.88847 3.84177Z" fill="#F1F2F3"/>
<path d="M14.1115 12.5793C14.3388 12.9059 14.3028 13.3533 14.0262 13.6371L13.2876 14.3952C13.0111 14.679 12.5751 14.7161 12.2569 14.4828L10.8285 13.4356L13.0912 11.1133L14.1115 12.5793Z" fill="#F1F2F3"/>
<path d="M12.2569 1.93822C12.5751 1.70493 13.011 1.74196 13.2875 2.02577L14.0262 2.78385C14.3027 3.06765 14.3388 3.51504 14.1115 3.84165L13.0912 5.30767L10.8284 2.98538L12.2569 1.93822Z" fill="#F1F2F3"/>
<path d="M3.74314 14.4828C3.42491 14.7161 2.989 14.6791 2.71247 14.3953L1.97382 13.6372C1.6973 13.3534 1.66122 12.906 1.88852 12.5794L2.90883 11.1134L5.17157 13.4357L3.74314 14.4828Z" fill="#F1F2F3"/>
<path d="M15.3315 6.8646C15.7173 6.93059 16 7.27312 16 7.67448V8.74657C16 9.14793 15.7173 9.49047 15.3315 9.55645L13.6 9.85263V6.56842L15.3315 6.8646Z" fill="#F1F2F3"/>
<path d="M0.668481 9.55645C0.28273 9.49047 -5.12828e-08 9.14793 0 8.74657L1.36982e-07 7.67448C1.88265e-07 7.27312 0.282731 6.93058 0.668481 6.8646L2.4 6.56842L2.4 9.85263L0.668481 9.55645Z" fill="#F1F2F3"/>
<path d="M6.68859 0.686072C6.75288 0.290171 7.08663 0 7.4777 0H8.5223C8.91337 0 9.24712 0.290171 9.31141 0.686072L9.6 2.46316H6.4L6.68859 0.686072Z" fill="#F1F2F3"/>
<path d="M9.31141 15.735C9.24712 16.1309 8.91337 16.4211 8.5223 16.4211H7.4777C7.08663 16.4211 6.75288 16.1309 6.68859 15.735L6.4 13.9579H9.6L9.31141 15.735Z" fill="#F1F2F3"/>
</svg>
