<svg width="22" height="23" viewBox="0 0 22 23" fill="none" xmlns="http://www.w3.org/2000/svg">
<path fill-rule="evenodd" clip-rule="evenodd" d="M4.19206 21.7469C3.53121 21.5928 3.12137 20.9324 3.27664 20.2718L7.76068 1.196C7.91595 0.535433 8.57755 0.124864 9.23839 0.278975C9.89924 0.433085 10.3091 1.09351 10.1538 1.75409L5.66977 20.8299C5.5145 21.4905 4.8529 21.901 4.19206 21.7469Z" fill="#D7D7EC"/>
<path fill-rule="evenodd" clip-rule="evenodd" d="M12.2733 21.7469C11.6125 21.5928 11.2026 20.9324 11.3579 20.2718L15.8419 1.196C15.9972 0.535433 16.6588 0.124864 17.3197 0.278975C17.9805 0.433085 18.3903 1.09351 18.2351 1.75409L13.751 20.8299C13.5958 21.4905 12.9342 21.901 12.2733 21.7469Z" fill="#D7D7EC"/>
<path fill-rule="evenodd" clip-rule="evenodd" d="M0 14.5356C0 13.857 0.550095 13.3069 1.22867 13.3069H18.4432C19.1217 13.3069 19.6718 13.857 19.6718 14.5356C19.6718 15.2141 19.1217 15.7642 18.4432 15.7642H1.22867C0.550095 15.7642 0 15.2141 0 14.5356Z" fill="#D7D7EC"/>
<path fill-rule="evenodd" clip-rule="evenodd" d="M1.79619 6.48502C1.79619 5.80644 2.34629 5.25635 3.02486 5.25635H20.2394C20.9179 5.25635 21.468 5.80644 21.468 6.48502C21.468 7.1636 20.9179 7.71369 20.2394 7.71369H3.02486C2.34629 7.71369 1.79619 7.1636 1.79619 6.48502Z" fill="#D7D7EC"/>
</svg>
