<svg width="22" height="22" viewBox="0 0 22 22" fill="none" xmlns="http://www.w3.org/2000/svg">
<path fill-rule="evenodd" clip-rule="evenodd" d="M5.60558 3.30298C5.62967 3.30298 5.65383 3.30298 5.67808 3.30298L16.3947 3.30298C17.4141 3.30293 18.2868 3.30288 18.9846 3.39669C19.7301 3.49693 20.4368 3.72191 21.0091 4.29416C21.5813 4.8664 21.8063 5.57311 21.9065 6.31867C22.0004 7.01639 22.0003 7.88913 22.0003 8.90854V16.3943C22.0003 17.4137 22.0004 18.2865 21.9065 18.9842C21.8063 19.7298 21.5813 20.4365 21.0091 21.0087C20.4368 21.581 19.7301 21.8059 18.9846 21.9062C18.2868 22 17.4141 21.9999 16.3947 21.9999H5.60557C4.58616 21.9999 3.71341 22 3.0157 21.9062C2.27013 21.8059 1.56343 21.581 0.99118 21.0087C0.418934 20.4365 0.193951 19.7298 0.0937123 18.9842C-9.40993e-05 18.2865 -4.94984e-05 17.4137 2.43102e-06 16.3943L4.92129e-06 8.98105C4.92129e-06 8.9568 3.67616e-06 8.93264 2.43102e-06 8.90856C-4.94984e-05 7.88914 -9.40993e-05 7.01639 0.0937123 6.31867C0.193951 5.57311 0.418935 4.8664 0.99118 4.29416C1.56343 3.72191 2.27013 3.49693 3.0157 3.39669C3.71342 3.30288 4.58616 3.30293 5.60558 3.30298ZM3.3062 5.55744C2.80239 5.62517 2.63245 5.73614 2.53281 5.83578C2.43316 5.93543 2.32219 6.10537 2.25446 6.60918C2.18251 7.14434 2.18019 7.86884 2.18019 8.98105V16.3218C2.18019 17.434 2.18251 18.1585 2.25446 18.6937C2.32219 19.1975 2.43316 19.3674 2.53281 19.4671C2.63245 19.5667 2.80239 19.6777 3.3062 19.7454C3.84137 19.8174 4.56587 19.8197 5.67808 19.8197H16.3222C17.4344 19.8197 18.1589 19.8174 18.6941 19.7454C19.1979 19.6777 19.3678 19.5667 19.4675 19.4671C19.5671 19.3674 19.6781 19.1975 19.7458 18.6937C19.8178 18.1585 19.8201 17.434 19.8201 16.3218V8.98105C19.8201 7.86884 19.8178 7.14434 19.7458 6.60918C19.6781 6.10537 19.5671 5.93543 19.4675 5.83578C19.3678 5.73614 19.1979 5.62517 18.6941 5.55744C18.1589 5.48549 17.4344 5.48317 16.3222 5.48317H5.67808C4.56586 5.48317 3.84136 5.48549 3.3062 5.55744Z" fill="#FF7F6D"/>
<path fill-rule="evenodd" clip-rule="evenodd" d="M5.42825 3.30298C5.45028 3.30298 5.47238 3.30298 5.49455 3.30298L16.572 3.30298C17.5078 3.30294 18.3092 3.3029 18.9542 3.38293C19.6409 3.46814 20.2981 3.65846 20.8541 4.14863C20.9605 4.2424 21.0608 4.34277 21.1546 4.44913C21.6448 5.00512 21.8351 5.66234 21.9203 6.34906C22.0003 6.99408 22.0003 7.79544 22.0003 8.7312V8.79753H20.9102V9.88763H1.0901V8.79753H4.10975e-06C4.10975e-06 8.77536 3.08435e-06 8.75326 2.05894e-06 8.73123C-4.20335e-05 7.79546 -7.97527e-05 6.99408 0.0799551 6.34906C0.165163 5.66234 0.35548 5.00512 0.845648 4.44913C0.939422 4.34277 1.03979 4.2424 1.14615 4.14863C1.70214 3.65846 2.35936 3.46814 3.04608 3.38293C3.69111 3.3029 4.49248 3.30294 5.42825 3.30298ZM2.18517 7.70744H19.8151C19.8084 7.25973 19.7929 6.90912 19.7567 6.61752C19.6986 6.14925 19.6023 5.98514 19.5192 5.89092C19.4859 5.85308 19.4502 5.81737 19.4123 5.78401C19.3181 5.70094 19.154 5.60463 18.6857 5.54653C18.1909 5.48514 17.5263 5.48317 16.5057 5.48317H5.49455C4.47395 5.48317 3.80931 5.48514 3.31454 5.54653C2.84627 5.60463 2.68217 5.70094 2.58794 5.78401C2.5501 5.81737 2.51439 5.85308 2.48103 5.89092C2.39796 5.98514 2.30165 6.14925 2.24355 6.61752C2.20737 6.90912 2.19183 7.25973 2.18517 7.70744Z" fill="#FF7F6D"/>
<path fill-rule="evenodd" clip-rule="evenodd" d="M5.4945 -2.45464e-07C6.09654 -1.09898e-07 6.58459 0.488052 6.58459 1.09009L6.58459 4.39344C6.58459 4.99548 6.09654 5.48353 5.4945 5.48353C4.89246 5.48353 4.40441 4.99548 4.40441 4.39344L4.40441 1.09009C4.40441 0.488051 4.89246 -3.8103e-07 5.4945 -2.45464e-07Z" fill="#FF7F6D"/>
<path fill-rule="evenodd" clip-rule="evenodd" d="M16.5057 -2.45464e-07C17.1078 -1.09898e-07 17.5958 0.488052 17.5958 1.09009L17.5958 4.39344C17.5958 4.99548 17.1078 5.48353 16.5057 5.48353C15.9037 5.48353 15.4156 4.99548 15.4156 4.39344L15.4156 1.09009C15.4156 0.488051 15.9037 -3.8103e-07 16.5057 -2.45464e-07Z" fill="#FF7F6D"/>
</svg>
