<svg width="22" height="23" viewBox="0 0 22 23" fill="none" xmlns="http://www.w3.org/2000/svg">
<path fill-rule="evenodd" clip-rule="evenodd" d="M4.19205 21.7468C3.5312 21.5927 3.12136 20.9323 3.27664 20.2717L7.76067 1.19588C7.91594 0.53531 8.57754 0.124742 9.23839 0.278853C9.89923 0.432963 10.3091 1.09339 10.1538 1.75396L5.66977 20.8298C5.51449 21.4904 4.85289 21.9009 4.19205 21.7468Z" fill="#FF7F6D"/>
<path fill-rule="evenodd" clip-rule="evenodd" d="M12.2733 21.7468C11.6125 21.5927 11.2026 20.9323 11.3579 20.2717L15.8419 1.19588C15.9972 0.53531 16.6588 0.124742 17.3197 0.278853C17.9805 0.432963 18.3903 1.09339 18.2351 1.75396L13.751 20.8298C13.5958 21.4904 12.9342 21.9009 12.2733 21.7468Z" fill="#FF7F6D"/>
<path fill-rule="evenodd" clip-rule="evenodd" d="M0 14.5353C0 13.8567 0.550095 13.3066 1.22867 13.3066H18.4432C19.1217 13.3066 19.6718 13.8567 19.6718 14.5353C19.6718 15.2139 19.1217 15.764 18.4432 15.764H1.22867C0.550095 15.764 0 15.2139 0 14.5353Z" fill="#FF7F6D"/>
<path fill-rule="evenodd" clip-rule="evenodd" d="M1.7962 6.48502C1.7962 5.80644 2.3463 5.25635 3.02488 5.25635H20.2394C20.918 5.25635 21.468 5.80644 21.468 6.48502C21.468 7.1636 20.918 7.71369 20.2394 7.71369H3.02488C2.3463 7.71369 1.7962 7.1636 1.7962 6.48502Z" fill="#FF7F6D"/>
</svg>
