<svg width="14" height="16" viewBox="0 0 14 16" fill="none" xmlns="http://www.w3.org/2000/svg">
<path fill-rule="evenodd" clip-rule="evenodd" d="M1.64103 4C2.09418 4 2.46154 4.35817 2.46154 4.8V13.6C2.46154 14.0418 2.82889 14.4 3.28205 14.4H9.84615C10.2993 14.4 10.6667 14.0418 10.6667 13.6V4.8C10.6667 4.35817 11.034 4 11.4872 4C11.9403 4 12.3077 4.35817 12.3077 4.8V13.6C12.3077 14.9255 11.2056 16 9.84615 16H3.28205C1.92258 16 0.820513 14.9255 0.820513 13.6V4.8C0.820513 4.35817 1.18787 4 1.64103 4Z" fill="#F1F2F3"/>
<path fill-rule="evenodd" clip-rule="evenodd" d="M4.92308 4.8C5.37623 4.8 5.74359 5.15817 5.74359 5.6V12C5.74359 12.4418 5.37623 12.8 4.92308 12.8C4.46992 12.8 4.10256 12.4418 4.10256 12V5.6C4.10256 5.15817 4.46992 4.8 4.92308 4.8Z" fill="#F1F2F3"/>
<path fill-rule="evenodd" clip-rule="evenodd" d="M8.20513 4.8C8.65829 4.8 9.02564 5.15817 9.02564 5.6V12C9.02564 12.4418 8.65829 12.8 8.20513 12.8C7.75197 12.8 7.38462 12.4418 7.38462 12V5.6C7.38462 5.15817 7.75197 4.8 8.20513 4.8Z" fill="#F1F2F3"/>
<path d="M0 2.4C0 1.95817 0.367356 1.6 0.820513 1.6H12.3077C12.7608 1.6 13.1282 1.95817 13.1282 2.4C13.1282 2.84183 12.7608 3.2 12.3077 3.2H0.820513C0.367356 3.2 0 2.84183 0 2.4Z" fill="#F1F2F3"/>
<path d="M3.28205 0.8C3.28205 0.358172 3.64941 0 4.10256 0H9.02564C9.4788 0 9.84615 0.358172 9.84615 0.8V1.6H3.28205V0.8Z" fill="#F1F2F3"/>
</svg>
